<?xml version="1.0" encoding="UTF-8"?><svg id="logo" xmlns="http://www.w3.org/2000/svg" xmlns:xlink="http://www.w3.org/1999/xlink" viewBox="0 0 106 106"><defs><filter id="drop-shadow-1" filterUnits="userSpaceOnUse"><feOffset dx="4" dy="4"/><feGaussianBlur result="blur" stdDeviation="3"/><feFlood flood-color="#000" flood-opacity=".75"/><feComposite in2="blur" operator="in"/><feComposite in="SourceGraphic"/></filter><linearGradient id="linear-gradient" x1="82.12" y1="424.13" x2="91.62" y2="407.38" gradientTransform="translate(0 -352)" gradientUnits="userSpaceOnUse"><stop offset="0" stop-color="#00a995"/><stop offset=".5" stop-color="#006eb9"/><stop offset="1" stop-color="#00aa4f"/></linearGradient><linearGradient id="linear-gradient-2" x1="13.03" y1="425.32" x2="30.67" y2="416.59" xlink:href="#linear-gradient"/><linearGradient id="linear-gradient-3" x1="26.51" y1="430.43" x2="42.77" y2="426.59" xlink:href="#linear-gradient"/><linearGradient id="linear-gradient-4" x1="65.9" y1="431.3" x2="78.69" y2="420.79" xlink:href="#linear-gradient"/><linearGradient id="linear-gradient-5" x1="47.84" y1="427.76" x2="59.42" y2="431.07" xlink:href="#linear-gradient"/></defs><g id="Icon" style="filter:url(#drop-shadow-1);"><path d="m36.59,52.74v-.08c0-7.42,4.93-14.06,12.12-15.87,10.95-2.75,20.69,5.39,20.69,15.87v.08h29.76v-5.98c0-.76-.54-1.36-1.3-1.44l-11.78-1.44c-.76-2.88-1.91-5.6-3.37-8.1l7.34-9.31c.46-.61.38-1.44-.15-1.97l-8.41-8.32c-.54-.53-1.38-.61-1.99-.15l-9.41,7.27c-2.6-1.44-5.35-2.57-8.19-3.33l-1.45-11.73c-.08-.76-.76-1.29-1.45-1.29h-11.93c-.76,0-1.38.53-1.45,1.29l-1.45,11.73c-2.91.76-5.66,1.89-8.19,3.33l-9.41-7.27c-.61-.45-1.45-.38-1.99.15l-8.41,8.32c-.54.53-.61,1.36-.15,1.97l7.34,9.31c-1.45,2.57-2.6,5.3-3.37,8.1l-11.86,1.44c-.76.08-1.3.76-1.3,1.44v5.98h29.76Z" style="fill:#1a1718;"/><path d="m36.59,52.74v-.08c0-7.42,4.93-14.06,12.12-15.87,10.95-2.75,20.69,5.39,20.69,15.87v.08h29.76v-5.98c0-.76-.54-1.36-1.3-1.44l-11.78-1.44c-.76-2.88-1.91-5.6-3.37-8.1l7.34-9.31c.46-.61.38-1.44-.15-1.97l-8.41-8.32c-.54-.53-1.38-.61-1.99-.15l-9.41,7.27c-2.6-1.44-5.35-2.57-8.19-3.33l-1.45-11.73c-.08-.76-.76-1.29-1.45-1.29h-11.93c-.76,0-1.38.53-1.45,1.29l-1.45,11.73c-2.91.76-5.66,1.89-8.19,3.33l-9.41-7.27c-.61-.45-1.45-.38-1.99.15l-8.41,8.32c-.54.53-.61,1.36-.15,1.97l7.34,9.31c-1.45,2.57-2.6,5.3-3.37,8.1l-11.86,1.44c-.76.08-1.3.76-1.3,1.44v5.98h29.76Z" style="fill:#201c1d;"/><path d="m89.21,69.22c-1.1,0-2.19.31-3.05.84l-7.59-7.4v-6.87h-3.05v7.48c0,.38.16.76.47,1.07l8.06,7.86c-.55.92-.86,1.98-.86,2.98,0,3.71,3.49,6.63,7.44,5.81,2.31-.48,4.19-2.31,4.65-4.62.76-3.8-2.21-7.15-6.06-7.15Z" style="fill:url(#linear-gradient);"/><path d="m30.02,64.34c.31-.31.47-.69.47-1.07v-7.48h-3.05v6.87l-7.59,7.4c-.94-.53-2.03-.84-3.05-.84-3.77,0-6.75,3.35-5.98,7.15.47,2.31,2.35,4.14,4.67,4.61,3.94.81,7.42-2.12,7.42-5.82,0-1.07-.31-2.14-.86-2.98l7.98-7.86Z" style="fill:#04bfbf;"/><path d="m30.02,64.34c.31-.31.47-.69.47-1.07v-7.48h-3.05v6.87l-7.59,7.4c-.94-.53-2.03-.84-3.05-.84-3.77,0-6.75,3.35-5.98,7.15.47,2.31,2.35,4.14,4.67,4.61,3.94.81,7.42-2.12,7.42-5.82,0-1.07-.31-2.14-.86-2.98l7.98-7.86Z" style="fill:url(#linear-gradient-2);"/><path d="m39.65,68.61l-8.69,8.47c-.31.31-.47.69-.47,1.07v6.33c-3.87,1.01-5.9,5.4-3.64,9.18,1.04,1.75,2.96,2.86,5,2.85,4.28-.01,7.08-3.83,6.08-7.65-.55-2.11-2.27-3.84-4.38-4.38v-5.72l8.69-8.47c.31-.31.47-.69.47-1.07v-13.43h-3.05v12.82Z" style="fill:url(#linear-gradient-3);"/><path d="m75.51,84.48v-6.33c0-.38-.16-.76-.47-1.07l-8.69-8.47v-12.82h-3.05v13.43c0,.38.16.76.47,1.07l8.69,8.47v5.72c-3.87,1.01-5.9,5.4-3.64,9.18,1.04,1.75,2.96,2.86,5,2.85,4.28-.01,7.08-3.83,6.08-7.65-.55-2.11-2.27-3.84-4.38-4.38Z" style="fill:url(#linear-gradient-4);"/><path d="m54.91,87.31v-31.52h-3.05v31.52c-3.87.99-5.9,5.26-3.65,8.94,1.05,1.72,2.95,2.79,4.96,2.79,4.3.01,7.13-3.72,6.12-7.46-.63-2.06-2.27-3.74-4.38-4.27Z" style="fill:url(#linear-gradient-5);"/></g></svg>